<svg height="480pt" viewBox="0 -95 480 479" width="480pt" xmlns="http://www.w3.org/2000/svg"><path d="m456 48.5h-36.992188c-17.09375-29.695312-48.746093-48-83.007812-48s-65.914062 18.304688-83.007812 48h-228.992188c-13.253906 0-24 10.742188-24 24v160c0 13.253906 10.746094 24 24 24h16v16c0 8.835938 7.164062 16 16 16h48c8.835938 0 16-7.164062 16-16v-16h232v16c0 8.835938 7.164062 16 16 16h48c8.835938 0 16-7.164062 16-16v-16h24c13.253906 0 24-10.746094 24-24v-160c0-13.257812-10.746094-24-24-24zm-120-32c44.183594 0 80 35.816406 80 80 0 44.179688-35.816406 80-80 80s-80-35.820312-80-80c.046875-44.164062 35.835938-79.953125 80-80zm-280 256v-16h48v16zm360 0h-48v-16h48zm48-40c0 4.417969-3.582031 8-8 8h-432c-4.417969 0-8-3.582031-8-8v-160c0-4.421875 3.582031-8 8-8h221.601562c-14.230468 39.808594-.738281 84.242188 33.21875 109.421875 33.960938 25.179687 80.398438 25.179687 114.359376 0 33.957031-25.179687 47.449218-69.613281 33.21875-109.421875h29.601562c4.417969 0 8 3.578125 8 8zm0 0"/><path d="m336 144.5v16c35.328125-.042969 63.960938-28.671875 64-64h-16c-.027344 26.496094-21.5 47.972656-48 48zm0 0"/><path d="m336 32.5c-35.328125.039062-63.960938 28.667969-64 64h16c.027344-26.5 21.5-47.976562 48-48zm0 0"/><path d="m208 80.5h-160v64h160zm-16 48h-128v-32h128zm0 0"/><path d="m64 160.5h32v16h-32zm0 0"/><path d="m112 160.5h32v16h-32zm0 0"/><path d="m160 160.5h32v16h-32zm0 0"/></svg>