<?xml version="1.0"?>
<svg xmlns="http://www.w3.org/2000/svg" viewBox="0 0 64 64" width="512" height="512"><g id="Laptop-2" data-name="Laptop"><path d="M10,34H54V6H10ZM12,8H52V32H12Z"/><path d="M61.6,58.507,58,36.917V5a3,3,0,0,0-3-3H9A3,3,0,0,0,6,5V36.917L2.4,58.507A3,3,0,0,0,5.361,62H58.639A3,3,0,0,0,61.6,58.507ZM8,5A1,1,0,0,1,9,4H55a1,1,0,0,1,1,1V36H8ZM22.326,60l1.221-4.274A1,1,0,0,1,24.509,55H39.491a1,1,0,0,1,.962.726L41.674,60ZM59.4,59.646a.982.982,0,0,1-.763.354H43.754l-1.378-4.824A3.014,3.014,0,0,0,39.491,53H24.509a3.014,3.014,0,0,0-2.885,2.176L20.246,60H5.361a1,1,0,0,1-.986-1.164L7.847,38H56.153l3.472,20.836A.985.985,0,0,1,59.4,59.646Z"/><rect x="17" y="40" width="2" height="2"/><rect x="13" y="40" width="2" height="2"/><rect x="21" y="40" width="2" height="2"/><rect x="25" y="40" width="2" height="2"/><rect x="29" y="40" width="2" height="2"/><rect x="33" y="40" width="2" height="2"/><rect x="37" y="40" width="2" height="2"/><rect x="41" y="40" width="2" height="2"/><rect x="45" y="40" width="2" height="2"/><rect x="49" y="40" width="2" height="2"/><rect x="17" y="46" width="2" height="2"/><rect x="13" y="46" width="2" height="2"/><rect x="21" y="46" width="2" height="2"/><rect x="25" y="46" width="2" height="2"/><rect x="29" y="46" width="2" height="2"/><rect x="33" y="46" width="2" height="2"/><rect x="37" y="46" width="2" height="2"/><rect x="41" y="46" width="2" height="2"/><rect x="45" y="46" width="2" height="2"/><rect x="49" y="46" width="2" height="2"/><rect x="17" y="43" width="2" height="2"/><rect x="13" y="43" width="2" height="2"/><rect x="21" y="43" width="2" height="2"/><rect x="25" y="43" width="2" height="2"/><rect x="29" y="43" width="2" height="2"/><rect x="33" y="43" width="2" height="2"/><rect x="37" y="43" width="2" height="2"/><rect x="41" y="43" width="2" height="2"/><rect x="17" y="49" width="2" height="2"/><rect x="13" y="49" width="2" height="2"/><rect x="21" y="49" width="2" height="2"/><rect x="25" y="49" width="14" height="2"/><rect x="41" y="49" width="2" height="2"/><rect x="45" y="49" width="2" height="2"/><rect x="49" y="49" width="2" height="2"/><rect x="45" y="43" width="6" height="2"/><rect x="31" y="29" width="2" height="2"/><rect x="35" y="29" width="2" height="2"/><rect x="27" y="29" width="2" height="2"/></g></svg>
