<?xml version="1.0" encoding="utf-8"?>
<!-- Generator: Adobe Illustrator 23.0.0, SVG Export Plug-In . SVG Version: 6.00 Build 0)  -->
<svg version="1.1" id="Слой_1" xmlns="http://www.w3.org/2000/svg" xmlns:xlink="http://www.w3.org/1999/xlink" x="0px" y="0px"
	 viewBox="0 0 200 120" style="enable-background:new 0 0 200 120;" xml:space="preserve">
<style type="text/css">
	.st0{fill:#0083CA;}
</style>
<path class="st0" d="M87.4,40.7c2.8,1.8,5.6,3.6,8.1,5.6c-5.8,3.6-11.5,7.3-17.3,11.1c0.8,0.6,1.8,1.2,2.8,2
	c5.8-3.8,11.7-7.3,17.5-11.1c2.6,1.6,5.2,3.4,7.5,5.2c-5.8,3.8-11.5,7.5-17.3,11.3c0.8,0.8,2,1.2,2.8,1.8c6-3.6,11.9-7.5,17.7-11.3
	V42.8h12.9v24.4c3.6,0.2,7.7,0,11.5,0V79h-24.4V67.3c-7.1,4.4-14.5,9.3-21.8,13.9c-7.5-5-14.7-10.1-22.2-14.9
	C63,73.2,57.9,78.4,49.3,79C44,79.4,38,78.8,31.9,79V42.8c7.7,0.6,16.1-1,22.2,0.8c5.4,1.6,9.1,6,10.9,11.3
	C72.5,50.4,79.9,45.4,87.4,40.7L87.4,40.7z M44.2,54.4v12.9c3.2,0,5.4,0.2,7.3-1.2c2.8-2.2,3.2-7.3,0.8-9.9c-1.6-1.8-4.4-2.2-7.9-2
	C44.2,54.2,44.2,54.4,44.2,54.4z M137.2,42.8h12.9v24.6h11.3V79H137V43.2C137,43,137,42.8,137.2,42.8L137.2,42.8z"/>
</svg>
