<svg xmlns="http://www.w3.org/2000/svg" width="150" height="60" viewBox="0 0 150 60">
  <defs>
    <style>
      .cls-1 {
        fill: #2a2a2a;
        fill-rule: evenodd;
      }
    </style>
  </defs>
  <path id="support" class="cls-1" d="M17.709,31.041a11.683,11.683,0,0,0-4.591-3.192,29.637,29.637,0,0,1-4.223-2.168,1.691,1.691,0,0,1-.778-1.347,1.429,1.429,0,0,1,.612-1.172,3.225,3.225,0,0,1,1.959-.472,15.337,15.337,0,0,1,6.191,1.644L18.994,19a19.826,19.826,0,0,0-8.1-1.836,11.332,11.332,0,0,0-7.065,1.976A6.554,6.554,0,0,0,1.261,24.65a8.126,8.126,0,0,0,.6,3.27,6.761,6.761,0,0,0,1.854,2.448,16.306,16.306,0,0,0,3.751,2.2q2.763,1.242,3.4,1.644a3.364,3.364,0,0,1,.927.8,1.511,1.511,0,0,1,.288.918,1.64,1.64,0,0,1-.717,1.373,3.8,3.8,0,0,1-2.256.533A15.308,15.308,0,0,1,5.2,37.267a20.554,20.554,0,0,1-4.11-1.583V41.84a15.894,15.894,0,0,0,3.6,1.25,21.585,21.585,0,0,0,4.285.359,12.9,12.9,0,0,0,5.334-1.023,7.9,7.9,0,0,0,3.48-2.868,7.541,7.541,0,0,0,1.207-4.223A6.932,6.932,0,0,0,17.709,31.041Zm17.2-13.509V32.5a6.509,6.509,0,0,1-.953,3.978A3.662,3.662,0,0,1,30.889,37.7a3.659,3.659,0,0,1-2.99-1.224,6.146,6.146,0,0,1-1.014-3.935v-15H19.941V33.079q0,5.019,2.807,7.695t8.036,2.676q5.351,0,8.193-2.754t2.842-7.773V17.532H34.911Zm25.535,2.116q-2.431-2.116-7.275-2.116H44.322V43.1H51.23V34.618h1.941q4.652,0,7.179-2.335a8.563,8.563,0,0,0,2.527-6.619A7.549,7.549,0,0,0,60.446,19.648ZM51.23,23.111h1.784q2.868,0,2.868,2.588a3.173,3.173,0,0,1-.918,2.413,3.439,3.439,0,0,1-2.474.874H51.23V23.111Zm28.98-3.463q-2.431-2.116-7.275-2.116H64.086V43.1h6.908V34.618h1.941q4.652,0,7.179-2.335a8.563,8.563,0,0,0,2.527-6.619A7.549,7.549,0,0,0,80.21,19.648Zm-9.216,3.463h1.784q2.868,0,2.868,2.588a3.173,3.173,0,0,1-.918,2.413,3.439,3.439,0,0,1-2.475.874H70.994V23.111Zm33.632-2.641q-3.147-3.34-9.251-3.34-6.086,0-9.277,3.366t-3.192,9.75q0,6.453,3.209,9.828t9.225,3.375q6.1,0,9.269-3.358t3.165-9.811Q107.774,23.81,104.626,20.47ZM95.375,22.8a4.385,4.385,0,0,1,3.839,1.828q1.286,1.828,1.285,5.657,0,3.813-1.268,5.614a4.435,4.435,0,0,1-3.891,1.8q-5.159,0-5.159-7.415,0-7.485,5.194-7.485h0Zm22.807,11,5.422,9.3h7.834l-7.45-11.14q4.338-2.431,4.337-6.873,0-7.555-10.423-7.555h-8.376V43.1h6.907V33.8h1.749Zm-1.749-11.035H117.8q3.549,0,3.55,2.641,0,3.2-3.62,3.2h-1.295V22.761Zm25.746,0.42H148.4V17.532H129.028v5.649h6.243V43.1h6.908V23.181Z"/>
</svg>
