<?xml version="1.0"?>
<svg xmlns="http://www.w3.org/2000/svg" viewBox="0 0 64 64" width="512" height="512"><g id="Monitor"><path d="M57,6H7a5.006,5.006,0,0,0-5,5V43a5.006,5.006,0,0,0,5,5H23v6H17a1,1,0,0,0-.832.445l-4,6A1,1,0,0,0,13,62H51a1,1,0,0,0,.832-1.555l-4-6A1,1,0,0,0,47,54H41V48H57a5.006,5.006,0,0,0,5-5V11A5.006,5.006,0,0,0,57,6ZM46.465,56l2.666,4H14.869l2.666-4H23v1a1,1,0,0,0,1,1H40a1,1,0,0,0,1-1V56ZM39,56H25V48H39ZM60,43a3,3,0,0,1-3,3H7a3,3,0,0,1-3-3V11A3,3,0,0,1,7,8H57a3,3,0,0,1,3,3Z"/><path d="M58,10H6V40H58ZM56,38H8V12H56Z"/><path d="M35,43a3,3,0,1,0-3,3A3,3,0,0,0,35,43Zm-3,1a1,1,0,1,1,1-1A1,1,0,0,1,32,44Z"/><path d="M52,28a1,1,0,0,1-.707-.293l-11-11a1,1,0,0,1,1.414-1.414l11,11A1,1,0,0,1,52,28Z"/><path d="M53,23a1,1,0,0,1-.707-.293l-7-7a1,1,0,0,1,1.414-1.414l7,7A1,1,0,0,1,53,23Z"/></g></svg>
