<svg height="512" viewBox="0 0 64 64" width="512" xmlns="http://www.w3.org/2000/svg"><g id="Printer"><path d="m55 28v-15a3 3 0 0 0 -3-3h-3v-7a1 1 0 0 0 -1-1h-32a1 1 0 0 0 -1 1v7h-3a3 3 0 0 0 -3 3v15a7.008 7.008 0 0 0 -7 7v26a1 1 0 0 0 1 1h58a1 1 0 0 0 1-1v-26a7.008 7.008 0 0 0 -7-7zm-3-16a1 1 0 0 1 1 1v15h-4v-16zm-39 18h38v1a3 3 0 0 1 -3 3h-32a3 3 0 0 1 -3-3zm4-26h30v24h-30zm-6 9a1 1 0 0 1 1-1h3v16h-4zm2 47v-3a5.006 5.006 0 0 1 5-5h28a5.006 5.006 0 0 1 5 5v3zm47 0h-7v-3a7.008 7.008 0 0 0 -7-7h-28a7.008 7.008 0 0 0 -7 7v3h-7v-25a5.006 5.006 0 0 1 5-5h2v1a5.006 5.006 0 0 0 5 5h32a5.006 5.006 0 0 0 5-5v-1h2a5.006 5.006 0 0 1 5 5z"/><path d="m53 40a3 3 0 1 0 3 3 3 3 0 0 0 -3-3zm0 4a1 1 0 1 1 1-1 1 1 0 0 1 -1 1z"/><path d="m45 40a3 3 0 1 0 3 3 3 3 0 0 0 -3-3zm0 4a1 1 0 1 1 1-1 1 1 0 0 1 -1 1z"/><path d="m39 42h-23a1 1 0 0 0 0 2h23a1 1 0 0 0 0-2z"/></g></svg>