<svg id="Layer_2" height="512" viewBox="0 0 128 128" width="512" xmlns="http://www.w3.org/2000/svg" data-name="Layer 2"><path d="m109 0h-90a5.757 5.757 0 0 0 -5.75 5.75v116.5a5.757 5.757 0 0 0 5.75 5.75h90a5.757 5.757 0 0 0 5.75-5.75v-116.5a5.757 5.757 0 0 0 -5.75-5.75zm2.25 122.25a2.253 2.253 0 0 1 -2.25 2.25h-90a2.252 2.252 0 0 1 -2.25-2.25v-116.5a2.252 2.252 0 0 1 2.25-2.25h90a2.253 2.253 0 0 1 2.25 2.25z"/><path d="m103 10h-78a1.751 1.751 0 0 0 -1.75 1.75v94.492a1.751 1.751 0 0 0 1.75 1.75h78a1.75 1.75 0 0 0 1.75-1.75v-94.492a1.75 1.75 0 0 0 -1.75-1.75zm-1.75 94.492h-74.5v-90.992h74.5z"/><path d="m56.187 68.559a1.747 1.747 0 0 0 1.248-.523c5.427-5.515 14.283-14.458 15.365-15.408a1.75 1.75 0 0 0 -.989-3.194c-.983 0-.983 0-16.872 16.147a1.751 1.751 0 0 0 1.247 2.978z"/><path d="m39.383 65.35a1.746 1.746 0 0 0 1.248-.522c3.128-3.18 8.252-8.355 8.993-9.023a1.75 1.75 0 0 0 -1.032-3.163c-.881 0-.881 0-10.456 9.731a1.749 1.749 0 0 0 1.247 2.977z"/><path d="m79.408 65.35a1.744 1.744 0 0 0 1.247-.522c3.129-3.18 8.253-8.355 8.994-9.023a1.75 1.75 0 0 0 -1.032-3.163c-.881 0-.881 0-10.456 9.731a1.749 1.749 0 0 0 1.247 2.977z"/><path d="m66.833 112.417h-5.666a4.667 4.667 0 1 0 0 9.333h5.666a4.667 4.667 0 1 0 0-9.333zm0 5.833h-5.666a1.167 1.167 0 1 1 0-2.333h5.666a1.167 1.167 0 1 1 0 2.333z"/></svg>