<svg height="512pt" viewBox="0 -41 512 512" width="512pt" xmlns="http://www.w3.org/2000/svg"><path d="m504.425781 0h-327.132812c-4.183594 0-7.574219 3.390625-7.574219 7.574219 0 4.183593 3.390625 7.574219 7.574219 7.574219h319.558593v299.929687h-15.148437v-277.207031c0-4.183594-3.390625-7.574219-7.574219-7.574219h-436.257812c-4.183594 0-7.574219 3.390625-7.574219 7.574219v254.484375c0 4.183593 3.390625 7.574219 7.574219 7.574219h113.609375c4.179687 0 7.574219-3.390626 7.574219-7.574219 0-4.183594-3.394532-7.574219-7.574219-7.574219h-106.035157v-239.335938h421.109376v193.890626h-75.234376c-4.183593 0-7.574218 3.390624-7.574218 7.574218v37.871094h-196.859375c-4.183594 0-7.574219 3.390625-7.574219 7.574219 0 4.183593 3.390625 7.574219 7.574219 7.574219h196.859375v15.148437h-368.597656v-299.929687h126.738281c4.183593 0 7.574219-3.390626 7.574219-7.574219 0-4.183594-3.390626-7.574219-7.574219-7.574219h-134.3125c-4.183594 0-7.574219 3.390625-7.574219 7.574219v315.078125c0 4.183594 3.390625 7.574218 7.574219 7.574218h200.457031v35.285157l-41.085938 12.503906c-3.1875.972656-5.367187 3.914063-5.367187 7.246094v36.355469c0 4.183593 3.390625 7.574218 7.574219 7.574218h173.695312c4.183594 0 7.574219-3.390625 7.574219-7.574218v-36.355469c0-3.332031-2.179687-6.273438-5.367187-7.246094l-41.085938-12.503906v-35.285157h79.777344v91.390626c0 4.183593 3.390625 7.574218 7.574218 7.574218h82.808594c4.183594 0 7.574219-3.390625 7.574219-7.574218v-28.78125c0-4.183594-3.390625-7.574219-7.574219-7.574219s-7.574218 3.390625-7.574218 7.574219v21.207031h-67.660157v-159.558594h67.660157v103.007813c0 4.183593 3.390624 7.574218 7.574218 7.574218s7.574219-3.390625 7.574219-7.574218v-27.265626h22.722656c4.183594 0 7.574219-3.390624 7.574219-7.574218v-315.078125c0-4.183594-3.390625-7.574219-7.574219-7.574219zm-169.152343 414.042969h-158.546876v-23.167969l40.003907-12.175781h78.539062l40.003907 12.175781zm-46.453126-50.492188h-65.640624v-33.324219h65.640624zm0 0"/><path d="m432.726562 405.964844c4.183594 0 7.574219-3.390625 7.574219-7.574219v-9.59375h9.59375c4.183594 0 7.574219-3.390625 7.574219-7.574219s-3.390625-7.574218-7.574219-7.574218h-9.59375v-9.59375c0-4.183594-3.390625-7.574219-7.574219-7.574219-4.183593 0-7.574218 3.390625-7.574218 7.574219v9.59375h-9.59375c-4.183594 0-7.574219 3.390624-7.574219 7.574218s3.390625 7.574219 7.574219 7.574219h9.59375v9.59375c0 4.183594 3.390625 7.574219 7.574218 7.574219zm0 0"/><path d="m456.964844 301.949219h-48.476563c-4.179687 0-7.574219 3.390625-7.574219 7.574219 0 4.183593 3.394532 7.574218 7.574219 7.574218h48.476563c4.179687 0 7.570312-3.390625 7.570312-7.574218 0-4.183594-3.390625-7.574219-7.570312-7.574219zm0 0"/><path d="m456.964844 270.644531h-48.476563c-4.179687 0-7.574219 3.390625-7.574219 7.574219 0 4.179688 3.394532 7.570312 7.574219 7.570312h48.476563c4.179687 0 7.570312-3.390624 7.570312-7.570312 0-4.183594-3.390625-7.574219-7.570312-7.574219zm0 0"/><path d="m464.535156 340.828125c0-4.183594-3.390625-7.574219-7.574218-7.574219h-48.472657c-4.183593 0-7.574219 3.390625-7.574219 7.574219s3.390626 7.574219 7.574219 7.574219h48.472657c4.183593 0 7.574218-3.390625 7.574218-7.574219zm0 0"/></svg>