<?xml version="1.0" encoding="iso-8859-1"?>
<!-- Generator: Adobe Illustrator 19.0.0, SVG Export Plug-In . SVG Version: 6.00 Build 0)  -->
<svg version="1.1" id="Capa_1" xmlns="http://www.w3.org/2000/svg" xmlns:xlink="http://www.w3.org/1999/xlink" x="0px" y="0px"
	 viewBox="0 0 480 480" style="enable-background:new 0 0 480 480;" xml:space="preserve">
<g>
	<g>
		<g>
			<path d="M94.896,204.68c-19.872,42.669-19.872,91.939,0,134.608C121.177,395.73,177.74,431.87,240,432
				c62.316,0.017,118.973-36.148,145.193-92.68c37.18-80.163,2.335-175.288-77.828-212.468S132.076,124.517,94.896,204.68z
				 M370.746,211.48c33.424,72.164,2.019,157.761-70.145,191.185s-157.761,2.019-191.185-70.145c-17.878-38.38-17.878-82.7,0-121.08
				C133.063,160.642,183.968,128.115,240,128C296.127,127.968,347.157,160.551,370.746,211.48z"/>
			<path d="M127.096,211.84c-0.001,0.001-0.001,0.003-0.002,0.004c-2.075,3.901-0.595,8.745,3.306,10.82
				c9.791,5.221,17.807,13.237,23.028,23.028c14.529,27.248,4.219,61.115-23.028,75.644c-0.001,0.001-0.003,0.001-0.004,0.002
				c-3.9,2.077-5.377,6.922-3.3,10.822C149.271,373.93,192.709,400.03,240,400c47.33,0.029,90.813-26.063,113.059-67.84
				c33.225-62.398,9.577-139.916-52.821-173.141S160.321,149.442,127.096,211.84z M335.175,212.864
				c32.678,52.52,16.592,121.586-35.927,154.263c-52.52,32.678-121.586,16.592-154.263-35.927
				c7.129-4.932,13.309-11.111,18.24-18.24c22.604-32.678,14.437-77.492-18.24-100.096c9.065-14.57,21.357-26.862,35.927-35.927
				C233.431,144.259,302.497,160.344,335.175,212.864z"/>
			<path d="M432,0H48c-4.418,0-8,3.582-8,8v464c0,4.418,3.582,8,8,8h384c4.418,0,8-3.582,8-8V8C440,3.582,436.418,0,432,0z M424,64
				h-56c-4.418,0-8,3.582-8,8s3.582,8,8,8h56v384H56V80h280c4.418,0,8-3.582,8-8s-3.582-8-8-8H56V16h368V64z"/>
			<circle cx="88" cy="40" r="16"/>
			<circle cx="136" cy="40" r="16"/>
			<rect x="392" y="32" width="16" height="16"/>
			<rect x="360" y="32" width="16" height="16"/>
			<rect x="328" y="32" width="16" height="16"/>
		</g>
	</g>
</g>
<g>
</g>
<g>
</g>
<g>
</g>
<g>
</g>
<g>
</g>
<g>
</g>
<g>
</g>
<g>
</g>
<g>
</g>
<g>
</g>
<g>
</g>
<g>
</g>
<g>
</g>
<g>
</g>
<g>
</g>
</svg>
